<?xml version="1.0" encoding="UTF-8"?>
<svg viewBox="0 0 41 41" xmlns="http://www.w3.org/2000/svg">
<defs>
<clipPath id="d">
<path d="m20.282 0.499c11.14 0 20.17 9.03 20.17 20.17s-9.03 20.17-20.17 20.17-20.17-9.03-20.17-20.17 9.03-20.17 20.17-20.17z" fill="#fff"/>
</clipPath>
<clipPath id="c">
<path d="m20.282 0.499c11.14 0 20.17 9.03 20.17 20.17s-9.03 20.17-20.17 20.17-20.17-9.03-20.17-20.17 9.03-20.17 20.17-20.17z"/>
</clipPath>
</defs>
<path d="m20.282 0.499c11.14 0 20.17 9.03 20.17 20.17s-9.03 20.17-20.17 20.17-20.17-9.03-20.17-20.17 9.03-20.17 20.17-20.17z" fill="#ebecef"/>
<path d="m20.282 0.499c11.14 0 20.17 9.03 20.17 20.17s-9.03 20.17-20.17 20.17-20.17-9.03-20.17-20.17 9.03-20.17 20.17-20.17z" clip-path="url(#d)" fill="none" stroke="#ebecef" stroke-miterlimit="20" stroke-width="2"/>
<g clip-path="url(#c)">
<path d="M5.515 40.84L.112 31.57v-.441L39.449 8.042l1.004 1.722v12.374L8.588 40.84zM.112 19.197L31.971.5h3.082l2.403 4.123L.112 26.54z" fill="#fcfdff"/>
</g>
<path d="M20.282 6.087c8.053 0 14.582 6.53 14.582 14.582 0 8.053-6.529 14.581-14.582 14.581S5.701 28.722 5.701 20.67 12.229 6.087 20.282 6.087z" fill="#e2e5ed"/>
<path d="M20.282 7.222c7.427 0 13.447 6.02 13.447 13.447s-6.02 13.447-13.447 13.447c-7.426 0-13.447-6.02-13.447-13.447S12.856 7.222 20.282 7.222z" fill="#ebecef"/>
</svg>
