<?xml version="1.0" encoding="UTF-8"?>
<svg viewBox="0 0 41 41" xmlns="http://www.w3.org/2000/svg">
<defs>
<clipPath id="c">
<path d="m20.26 0.499c11.14 0 20.17 9.03 20.17 20.17s-9.03 20.17-20.17 20.17c-11.14 1e-3 -20.172-9.029-20.172-20.169s9.03-20.17 20.17-20.17z" fill="#fff"/>
</clipPath>
<clipPath id="b">
<path d="m20.26 0.499c11.14 0 20.17 9.03 20.17 20.17s-9.03 20.17-20.17 20.17c-11.14 1e-3 -20.172-9.029-20.172-20.169s9.03-20.17 20.17-20.17z"/>
</clipPath>
<clipPath id="a">
<path d="M20.26 7.222c7.426 0 13.446 6.02 13.446 13.447s-6.02 13.447-13.447 13.447c-7.426 0-13.447-6.02-13.447-13.447S12.833 7.222 20.26 7.222z"/>
</clipPath>
</defs>
<path d="m20.26 0.499c11.14 0 20.17 9.03 20.17 20.17s-9.03 20.17-20.17 20.17c-11.14 1e-3 -20.172-9.029-20.172-20.169s9.03-20.17 20.17-20.17z" fill="#45a5ff"/>
<path d="m20.26 0.499c11.14 0 20.17 9.03 20.17 20.17s-9.03 20.17-20.17 20.17c-11.14 1e-3 -20.172-9.029-20.172-20.169s9.03-20.17 20.17-20.17z" clip-path="url(#c)" fill="none" stroke="#45a5ff" stroke-miterlimit="20" stroke-width="2"/>
<g clip-path="url(#b)">
<path d="M5.492 40.84L.09 31.57v-.441L39.427 8.042l1.003 1.722v12.374L8.565 40.84zM.09 19.197L31.949.5h3.08l2.404 4.123L.09 26.54z" fill="#bce8ff"/>
</g>
<path d="M20.26 6.087c8.052 0 14.58 6.53 14.58 14.582 0 8.053-6.528 14.581-14.58 14.581-8.054 0-14.582-6.528-14.582-14.581S12.206 6.087 20.259 6.087z" fill="#fff"/>
<path d="M20.26 7.222c7.426 0 13.446 6.02 13.446 13.447s-6.02 13.447-13.447 13.447c-7.426 0-13.447-6.02-13.447-13.447S12.833 7.222 20.26 7.222z" fill="#0873ff"/>
<g clip-path="url(#a)">
<path d="m24.742 11.705 20.17 20.17-2.24 2.241s-2.942 9.946-3.362 12.327-1.121 3.361-1.121 3.361l-20.17-20.17 2.24-7.844s-0.07-5.883 0-6.723 4.483-3.362 4.483-3.362z" fill="#005bd1"/>
</g>
<path d="M21.792 17.854h2.946l-.34 2.888h-2.606v8.887h-3.627v-8.887h-2.38v-2.888h2.38v-1.999c.151-1.695.425-2.472 1.474-3.444 1.048-.972 5.1-.667 5.1-.667v2.777h-.794c-.644 0-1.41-.034-1.813.334-.308.28-.344.779-.344 1h.004z" fill="#fff"/>
</svg>
