<svg xmlns="http://www.w3.org/2000/svg" width="41" height="41" viewBox="0 0 41 41"><defs><clipPath id="ce4xa"><path fill="#fff" d="M20.26.499c11.14 0 20.17 9.03 20.17 20.17 0 11.14-9.03 20.17-20.17 20.17C9.12 40.84.088 31.81.088 20.67c0-11.14 9.03-20.17 20.17-20.17z"/></clipPath><clipPath id="ce4xb"><path d="M20.26.499c11.14 0 20.17 9.03 20.17 20.17 0 11.14-9.03 20.17-20.17 20.17C9.12 40.84.088 31.81.088 20.67c0-11.14 9.03-20.17 20.17-20.17z"/></clipPath><clipPath id="ce4xc"><path d="M20.26 7.222c7.426 0 13.446 6.02 13.446 13.447s-6.02 13.447-13.447 13.447c-7.426 0-13.447-6.02-13.447-13.447S12.833 7.222 20.26 7.222z"/></clipPath></defs><g><g><g><path fill="#45a5ff" d="M20.26.499c11.14 0 20.17 9.03 20.17 20.17 0 11.14-9.03 20.17-20.17 20.17C9.12 40.84.088 31.81.088 20.67c0-11.14 9.03-20.17 20.17-20.17z"/><path fill="none" stroke="#45a5ff" stroke-miterlimit="20" stroke-width="2" d="M20.26.499c11.14 0 20.17 9.03 20.17 20.17 0 11.14-9.03 20.17-20.17 20.17C9.12 40.84.088 31.81.088 20.67c0-11.14 9.03-20.17 20.17-20.17z" clip-path="url(&quot;#ce4xa&quot;)"/></g><g clip-path="url(#ce4xb)"><path fill="#bce8ff" d="M5.492 40.84L.09 31.57v-.441L39.427 8.042l1.003 1.722v12.374L8.565 40.84zM.09 19.197L31.949.5h3.08l2.404 4.123L.09 26.54z"/></g><g><path fill="#005bd1" d="M20.26 6.087c8.052 0 14.58 6.53 14.58 14.582 0 8.053-6.528 14.581-14.58 14.581-8.054 0-14.582-6.528-14.582-14.581S12.206 6.087 20.259 6.087z"/></g><g><path fill="#0873ff" d="M20.26 7.222c7.426 0 13.446 6.02 13.446 13.447s-6.02 13.447-13.447 13.447c-7.426 0-13.447-6.02-13.447-13.447S12.833 7.222 20.26 7.222z"/></g><g clip-path="url(#ce4xc)"><path fill="#005bd1" d="M24.742 11.705l20.17 20.17-2.24 2.241s-2.942 9.946-3.362 12.327c-.42 2.381-1.121 3.361-1.121 3.361l-20.17-20.17 2.24-7.844s-.07-5.883 0-6.723c.07-.84 4.483-3.362 4.483-3.362z"/></g><g><path fill="#fff" d="M21.792 17.854h2.946l-.34 2.888h-2.606v8.887h-3.627v-8.887h-2.38v-2.888h2.38v-1.999c.151-1.695.425-2.472 1.474-3.444 1.048-.972 5.1-.667 5.1-.667v2.777h-.794c-.644 0-1.41-.034-1.813.334-.308.28-.344.779-.344 1h.004z"/></g></g></g></svg>