<svg xmlns="http://www.w3.org/2000/svg" width="201" height="59" viewBox="0 0 201 59"><defs><linearGradient id="9mgla" x1="101" x2="100" y1="59" y2="0" gradientUnits="userSpaceOnUse"><stop offset="0" stop-color="#7234e5"/><stop offset="1" stop-color="#3c03a5"/></linearGradient></defs><g><g><path fill="#0873ff" d="M6 0h189a6 6 0 0 1 6 6v47a6 6 0 0 1-6 6H6a6 6 0 0 1-6-6V6a6 6 0 0 1 6-6z"/><path fill="url(#9mgla)" d="M6 0h189a6 6 0 0 1 6 6v47a6 6 0 0 1-6 6H6a6 6 0 0 1-6-6V6a6 6 0 0 1 6-6z"/></g><g><g><g><text dominant-baseline="text-before-edge" style="line-height:25px" fill="#fff" font-family="'Poppins','Poppins-Regular'" font-size="17.5" font-style="none" font-weight="400" transform="translate(49 22)"><tspan style="font-kerning:normal" letter-spacing="-1.05">W</tspan><tspan style="font-kerning:normal" letter-spacing="-1.05">yślij wiadomość</tspan></text></g></g></g></g></svg>